# xmcd
# 
# Track frame offsets:
#     180
#     15752
#     29631
#     42317
#     53782
#     68153
#     96783
#     111527
#     125896
#     139473
#     151576
#     161649
#     174780
#     190372
#     204612
#     217418
#     232080
#     247073
# 
# Disc length: 3506
# 
# Revision: 2
# Processed by: cddbd v1.5.2PL0 Copyright (c) Steve Scherf et al.
# Submitted via: fre:ac v1.0.17
# 
DISCID=0f0db012
DTITLE=Women In Blues 1920-1943 - CD1 - Women In Blues 1920-1943
DYEAR=0
DGENRE=Blues
TTITLE0=Mamie Smith and Her Jazz Band - Crazy Blues
TTITLE1=Lucille Hegamin - Land Of Cotton Blues
TTITLE2=Alberta Hunter and The Red Onions Jazz Babies - Nobody Knows The Way I Feel Dis Mornin
TTITLE3=Sara Martin and Richard M.Jones's Jazz Wizards - Late Las Night
TTITLE4=Ma Rainey and Her Georgia Jazz Band - See See Rider Blues
TTITLE5=Bessie Smith - Empty Bed Blues
TTITLE6=Clara Smith - Shipwrecked Blues
TTITLE7=Martha Copeland - Nobody Rocks Me Like My Baby Do
TTITLE8=Pearl Dickson and Pet And Can - Little Rock Blues
TTITLE9=Mattie Delaney - Tallahatchie River Blues
TTITLE10=Lottie Beaman - Rolling Log Blues
TTITLE11=Ethel Waters - My Handy Man
TTITLE12=Lizzie Miles - My Man'o War
TTITLE13=Ida May Mack - Mr Moore Blues
TTITLE14=Lillian Glinn - Cravin A Man Blues
TTITLE15=Bertha "Chippie" Hill - Some Cold Day
TTITLE16=Rosa Henderson - Can't Be Bothered With No Sheik
TTITLE17=Edith Wilson - My Handy Man Aint't Handy No More
EXTD=Frémeaux et Associés\nFA018
EXTT0=
EXTT1=
EXTT2=
EXTT3=
EXTT4=
EXTT5=
EXTT6=
EXTT7=
EXTT8=
EXTT9=
EXTT10=
EXTT11=
EXTT12=
EXTT13=
EXTT14=
EXTT15=
EXTT16=
EXTT17=
PLAYORDER=
